# xmcd
#
# Track frame offsets:
#	150
#	16252
#	30647
#	52407
#	63330
#	76577
#	92425
#	108272
#	121882
#	134975
#
# Disc length: 2170 seconds
#
# Revision: 1
# Processed by: cddbd v1.4PL0 Copyright (c) Steve Scherf et al.
# Submitted via: audiograbber 1.82.02
#
DISCID=7e08780a
DTITLE=Steve Elliott and Lucie Walker - Straight Up
DYEAR=2000
DGENRE=Country Blues
TTITLE0=Feel the Fires Rage
TTITLE1=A Girl Would Have to Be A Fool
TTITLE2=Borderline
TTITLE3=Tumblin' Down
TTITLE4=It's All Right
TTITLE5=Cruel Cruel World
TTITLE6=No WInner Takes All
TTITLE7=It's Everything to Me
TTITLE8=Take it As it Comes
TTITLE9=The Truth is In Your Eyes
EXTD=www.rockincountryblues.com\nseveandlucie@rockincountryblues.com\nEWC01\nMa
EXTD=de In Canada
EXTT0=
EXTT1=
EXTT2=
EXTT3=
EXTT4=
EXTT5=
EXTT6=
EXTT7=
EXTT8=
EXTT9=
PLAYORDER=
